<svg width="60" height="60" viewBox="0 0 60 60" fill="none" xmlns="http://www.w3.org/2000/svg">
<path d="M18.75 26.25C20.8211 26.25 22.5 24.5711 22.5 22.5C22.5 20.4289 20.8211 18.75 18.75 18.75C16.6789 18.75 15 20.4289 15 22.5C15 24.5711 16.6789 26.25 18.75 26.25Z" fill="#00005A"/>
<path d="M30 20.625C32.0711 20.625 33.75 18.9461 33.75 16.875C33.75 14.8039 32.0711 13.125 30 13.125C27.9289 13.125 26.25 14.8039 26.25 16.875C26.25 18.9461 27.9289 20.625 30 20.625Z" fill="#00005A"/>
<path d="M41.25 26.25C43.3211 26.25 45 24.5711 45 22.5C45 20.4289 43.3211 18.75 41.25 18.75C39.1789 18.75 37.5 20.4289 37.5 22.5C37.5 24.5711 39.1789 26.25 41.25 26.25Z" fill="#00005A"/>
<path d="M43.125 37.5C45.1961 37.5 46.875 35.8211 46.875 33.75C46.875 31.6789 45.1961 30 43.125 30C41.0539 30 39.375 31.6789 39.375 33.75C39.375 35.8211 41.0539 37.5 43.125 37.5Z" fill="#00005A"/>
<path d="M35.625 46.875C37.6961 46.875 39.375 45.1961 39.375 43.125C39.375 41.0539 37.6961 39.375 35.625 39.375C33.5539 39.375 31.875 41.0539 31.875 43.125C31.875 45.1961 33.5539 46.875 35.625 46.875Z" fill="#00005A"/>
<path d="M31.0125 3.75C27.4811 3.61369 23.9584 4.19187 20.6559 5.44989C17.3533 6.70791 14.3387 8.61985 11.7929 11.0711C9.24711 13.5224 7.22249 16.4624 5.84045 19.7151C4.4584 22.9677 3.74738 26.4659 3.75001 30C3.74991 31.39 4.07044 32.7613 4.68666 34.0072C5.30287 35.2531 6.19817 36.3401 7.30293 37.1836C8.40769 38.0272 9.69214 38.6045 11.0564 38.8708C12.4206 39.137 13.8279 39.085 15.1688 38.7188L17.2688 38.1375C18.1042 37.9095 18.9809 37.8774 19.8307 38.0438C20.6806 38.2101 21.4805 38.5705 22.1682 39.0967C22.856 39.6229 23.4129 40.3008 23.7957 41.0776C24.1784 41.8544 24.3767 42.709 24.375 43.575V50.625C24.375 52.1168 24.9676 53.5476 26.0225 54.6025C27.0774 55.6574 28.5082 56.25 30 56.25C33.5341 56.2526 37.0323 55.5416 40.2849 54.1596C43.5376 52.7775 46.4777 50.7529 48.9289 48.2071C51.3802 45.6613 53.2921 42.6467 54.5501 39.3442C55.8081 36.0416 56.3863 32.519 56.25 28.9875C55.978 22.3813 53.2317 16.1189 48.5564 11.4436C43.8811 6.76833 37.6187 4.02205 31.0125 3.75ZM46.2188 45.5813C44.1252 47.7732 41.6079 49.5168 38.8199 50.7062C36.0318 51.8955 33.0311 52.5058 30 52.5C29.5027 52.5 29.0258 52.3025 28.6742 51.9508C28.3226 51.5992 28.125 51.1223 28.125 50.625V43.575C28.125 41.0886 27.1373 38.704 25.3791 36.9459C23.621 35.1877 21.2364 34.2 18.75 34.2C17.9075 34.2015 17.0689 34.315 16.2563 34.5375L14.1563 35.1188C13.3719 35.329 12.5497 35.3557 11.7533 35.1969C10.957 35.038 10.2079 34.6979 9.56422 34.2029C8.92052 33.7079 8.39948 33.0713 8.04151 32.3424C7.68353 31.6136 7.49824 30.812 7.50001 30C7.49768 26.9696 8.10753 23.97 9.29297 21.1811C10.4784 18.3922 12.215 15.8715 14.3986 13.7702C16.5821 11.669 19.1676 10.0305 22 8.953C24.8324 7.87553 27.8532 7.38131 30.8813 7.5C36.5197 7.79367 41.8496 10.1656 45.842 14.158C49.8344 18.1505 52.2063 23.4803 52.5 29.1188C52.6291 32.1487 52.1386 35.1731 51.0586 38.007C49.9785 40.8408 48.3317 43.4245 46.2188 45.6V45.5813Z" fill="#00005A"/>
</svg>
