<svg width="22" height="20" viewBox="0 0 22 20" fill="none" xmlns="http://www.w3.org/2000/svg">
<path d="M10.19 0.25C9.93001 0.25 9.67001 0.31 9.42001 0.4L2.06001 3.45C1.57077 3.65035 1.18112 4.03678 0.976718 4.52433C0.772319 5.01189 0.769905 5.56066 0.970006 6.05L5.93001 18C6.07651 18.3625 6.32604 18.674 6.64773 18.8962C6.96941 19.1183 7.34916 19.2414 7.74001 19.25C8.00001 19.25 8.27001 19.22 8.53001 19.1L15.9 16.05C16.2557 15.899 16.5607 15.6492 16.7787 15.3302C16.9967 15.0111 17.1186 14.6363 17.13 14.25C17.14 14 17.09 13.71 17 13.45L12 1.5C11.8587 1.13402 11.6104 0.819061 11.2876 0.596117C10.9648 0.373172 10.5823 0.252568 10.19 0.25ZM13.67 0.25L17.12 8.6V2.25C17.12 1.71957 16.9093 1.21086 16.5342 0.835786C16.1591 0.460714 15.6504 0.25 15.12 0.25M19.13 1.79V10.82L21.56 4.96C21.6596 4.71777 21.7105 4.45825 21.7096 4.19633C21.7087 3.93441 21.6561 3.67524 21.5548 3.43369C21.4536 3.19214 21.3056 2.97295 21.1194 2.78871C20.9333 2.60446 20.7126 2.45877 20.47 2.36M10.19 2.22L15.17 14.24L7.78001 17.3L2.80001 5.29" fill="#CCCCCC"/>
</svg>
