<svg width="41" height="40" viewBox="0 0 41 40" fill="none" xmlns="http://www.w3.org/2000/svg">
<path d="M14.9645 31.9471C14.6883 31.9986 14.5676 32.1282 14.6022 32.335C14.6366 32.5419 14.7918 32.611 15.0677 32.5419C15.344 32.473 15.4646 32.352 15.4299 32.1797C15.3956 31.9902 15.2404 31.9124 14.9645 31.9471ZM13.4899 32.1543C13.2139 32.1543 13.076 32.2486 13.076 32.4387C13.076 32.6628 13.2227 32.7574 13.5157 32.723C13.7917 32.723 13.9298 32.6281 13.9298 32.4387C13.9298 32.2148 13.7831 32.1196 13.4899 32.1543ZM11.4723 32.0761C11.4034 32.2659 11.5156 32.3949 11.8085 32.4642C12.0672 32.5672 12.2311 32.5157 12.2999 32.3089C12.3518 32.1195 12.2396 31.9818 11.9637 31.895C11.7049 31.8263 11.5412 31.8858 11.4723 32.0761Z" fill="white"/>
<path d="M38.1807 2.18565C36.7235 0.728641 34.9692 0 32.9165 0H8.08329C6.03127 0 4.27636 0.728641 2.81898 2.18565C1.36197 3.64294 0.633331 5.39785 0.633331 7.44995V32.2836C0.633331 34.3358 1.36197 36.0905 2.81898 37.5475C4.27627 39.0048 6.03127 39.7334 8.08329 39.7334H13.8777C14.2568 39.7334 14.5416 39.7204 14.7312 39.695C14.9208 39.6689 15.1103 39.5567 15.3001 39.3582C15.49 39.1601 15.5846 38.8711 15.5846 38.4919C15.5846 38.4404 15.5801 37.8535 15.5716 36.7326C15.5628 35.6114 15.5585 34.7234 15.5585 34.0679L14.9635 34.1715C14.5842 34.2403 14.1056 34.2707 13.5278 34.262C12.9503 34.2533 12.3508 34.1931 11.7301 34.081C11.109 33.9687 10.5315 33.7101 9.99685 33.3052C9.46247 32.8996 9.08311 32.3695 8.85886 31.7143L8.60009 31.1189C8.42767 30.7227 8.15622 30.2827 7.78538 29.8003C7.41453 29.3172 7.03952 28.9895 6.66016 28.817L6.47904 28.6876C6.35845 28.6015 6.24637 28.4976 6.14281 28.377C6.03943 28.256 5.96187 28.1351 5.91014 28.0148C5.8584 27.8939 5.90135 27.7947 6.03943 27.7168C6.17751 27.6394 6.42731 27.6009 6.78963 27.6009L7.30681 27.6784C7.65183 27.7473 8.07839 27.954 8.58741 28.2991C9.09606 28.644 9.5142 29.0923 9.84192 29.644C10.2388 30.3512 10.7169 30.8898 11.2776 31.2606C11.8379 31.6318 12.4029 31.8172 12.9719 31.8172C13.5408 31.8172 14.0323 31.7741 14.4463 31.6882C14.86 31.6018 15.248 31.4721 15.6103 31.2997C15.7655 30.1444 16.1881 29.2557 16.8777 28.635C15.8948 28.5314 15.0111 28.3764 14.2262 28.1693C13.4417 27.9622 12.6311 27.6261 11.7948 27.1603C10.9582 26.6946 10.2641 26.1173 9.71226 25.4271C9.16048 24.7368 8.70764 23.8315 8.35437 22.7109C8.00093 21.5897 7.82416 20.2961 7.82416 18.8304C7.82416 16.7439 8.50559 14.9673 9.86792 13.5016C9.2297 11.9323 9.28996 10.1735 10.0489 8.22462C10.549 8.06933 11.2907 8.18584 12.2736 8.5739C13.2566 8.96223 13.9764 9.2943 14.4336 9.56983C14.8908 9.84545 15.2571 10.0785 15.5331 10.2684C17.1372 9.81999 18.7926 9.59583 20.4998 9.59583C22.2069 9.59583 23.8626 9.81999 25.4668 10.2684L26.4498 9.64757C27.1226 9.23351 27.9158 8.85414 28.8299 8.50939C29.7439 8.16455 30.4422 8.0696 30.9253 8.2249C31.7011 10.1738 31.7705 11.9326 31.1318 13.5018C32.4941 14.9677 33.1757 16.7442 33.1757 18.8307C33.1757 20.2967 32.999 21.5946 32.6455 22.7239C32.2924 23.8534 31.8356 24.7591 31.2747 25.4403C30.7144 26.1215 30.0158 26.6945 29.1795 27.1605C28.3431 27.6259 27.5325 27.9626 26.7477 28.1691C25.963 28.3762 25.0793 28.5319 24.0964 28.6355C24.9925 29.4112 25.4408 30.6353 25.4408 32.3084V38.4911C25.4408 38.7843 25.4836 39.0213 25.5699 39.2024C25.6567 39.3834 25.7944 39.5081 25.984 39.5776C26.1745 39.6464 26.3418 39.6895 26.4888 39.7066C26.6357 39.7239 26.8466 39.7326 27.1226 39.7326H32.917C34.969 39.7326 36.724 39.004 38.1806 37.5467C39.6379 36.0894 40.3666 34.3344 40.3666 32.2824V7.44995C40.3664 5.39785 39.6377 3.64266 38.1807 2.18565Z" fill="white"/>
<path d="M8.49717 28.9206C8.37657 29.0065 8.39379 29.1445 8.54899 29.3342C8.72168 29.5065 8.85949 29.5325 8.96305 29.4116C9.08365 29.3257 9.06643 29.1878 8.91096 28.9977C8.73863 28.8427 8.60073 28.8167 8.49717 28.9206ZM7.64376 28.2738C7.59212 28.3948 7.65246 28.4983 7.82488 28.5842C7.96269 28.6708 8.07513 28.6537 8.16111 28.5328C8.21276 28.4118 8.15242 28.3083 7.97999 28.2217C7.80757 28.1699 7.6955 28.1873 7.64376 28.2738ZM9.29929 29.9295C9.1439 30.0154 9.1439 30.1711 9.29929 30.395C9.45449 30.6195 9.60082 30.6797 9.73899 30.576C9.89429 30.4551 9.89429 30.2913 9.73899 30.0843C9.60118 29.8607 9.45449 29.8083 9.29929 29.9295ZM10.2049 31.0932C10.0496 31.2314 10.0838 31.3946 10.3083 31.585C10.515 31.7915 10.6875 31.8175 10.8255 31.6619C10.9636 31.5243 10.9291 31.3605 10.722 31.1708C10.5154 30.9642 10.3429 30.9381 10.2049 31.0932Z" fill="white"/>
</svg>
