<svg width="40" height="40" viewBox="0 0 40 40" fill="none" xmlns="http://www.w3.org/2000/svg">
<path d="M35.76 0H3.97333C1.788 0 0 1.788 0 3.97333V35.76C0 37.9453 1.788 39.7333 3.97333 39.7333H35.76C37.9453 39.7333 39.7333 37.9453 39.7333 35.76V3.97333C39.7333 1.788 37.9453 0 35.76 0ZM11.92 33.7733H5.96V15.8933H11.92V33.7733ZM8.94 12.516C6.95333 12.516 5.364 10.9267 5.364 8.94C5.364 6.95333 6.95333 5.364 8.94 5.364C10.9267 5.364 12.516 6.95333 12.516 8.94C12.516 10.9267 10.9267 12.516 8.94 12.516ZM33.7733 33.7733H27.8133V23.244C27.8133 21.6547 26.4227 20.264 24.8333 20.264C23.244 20.264 21.8533 21.6547 21.8533 23.244V33.7733H15.8933V15.8933H21.8533V18.2773C22.8467 16.688 25.032 15.496 26.82 15.496C30.5947 15.496 33.7733 18.6747 33.7733 22.4493V33.7733Z" fill="white"/>
</svg>
