<svg width="42" height="42" viewBox="0 0 42 42" fill="none" xmlns="http://www.w3.org/2000/svg">
<path d="M36.645 24.5C36.155 26.9675 32.375 29.68 27.9475 30.205C25.655 30.4675 23.3975 30.73 21 30.625C17.0625 30.4325 14 29.68 14 29.68V30.765C14.56 34.65 17.885 34.8775 21.0525 35C24.2375 35.0875 27.0725 34.195 27.0725 34.195L27.2125 37.0825C27.2125 37.0825 24.9725 38.2725 21 38.5C18.8125 38.6225 16.0825 38.4475 12.915 37.625C6.05499 35.7875 4.86499 28.455 4.68999 21L4.67249 14.9975C4.67249 7.4025 9.62499 5.18 9.62499 5.18C12.1625 4.025 16.4675 3.5 20.9475 3.5H21.0525C25.5325 3.5 29.8375 4.025 32.375 5.18C32.375 5.18 37.3275 7.4025 37.3275 14.9975C37.3275 14.9975 37.3975 20.615 36.645 24.5ZM31.5 15.5925C31.5 13.7025 30.975 12.25 30.0125 11.1125C29.0325 10.01 27.7375 9.4325 26.11 9.4325C24.255 9.4325 22.8375 10.15 21.875 11.585L21 13.125L20.125 11.585C19.145 10.15 17.745 9.4325 15.8725 9.4325C14.2625 9.4325 12.9675 10.01 11.97 11.1125C11.0075 12.25 10.5 13.7025 10.5 15.5925V24.7975H14.175V15.855C14.175 14 14.9625 13.02 16.555 13.02C18.305 13.02 19.18 14.1575 19.18 16.3975V21.28H22.8025V16.3975C22.8025 14.1575 23.6775 13.02 25.445 13.02C27.02 13.02 27.8075 14 27.8075 15.855V24.7975H31.5V15.5925Z" fill="white"/>
</svg>
