<svg width="100" height="100" viewBox="0 0 100 100" fill="none" xmlns="http://www.w3.org/2000/svg">
<g clip-path="url(#clip0_149_21)">
<path d="M50 0C22.427 0 0 22.427 0 50C0 77.573 22.427 100 50 100C77.573 100 100 77.573 100 50C100 22.427 77.573 0 50 0ZM52.506 7.078C65.324 7.811 76.611 14.131 83.992 23.646C82.044 23.596 80.105 23.584 78.174 23.613C74.822 23.6686 71.4731 23.846 68.134 24.145C67.52 22.8776 66.5615 21.8087 65.3683 21.0606C64.1751 20.3125 62.7953 19.9155 61.387 19.915C61.0381 19.915 60.6895 19.9394 60.344 19.988C57.9955 15.5298 55.378 11.2185 52.506 7.078ZM46.428 7.158C50.065 12.127 53.218 17.171 55.916 22.285C54.9124 23.3555 54.2448 24.6969 53.996 26.143C49.331 27.052 44.7151 28.1968 40.166 29.573C39.5999 28.8077 38.8934 28.1571 38.084 27.656C39.971 20.921 42.611 14.097 45.986 7.191C46.133 7.178 46.281 7.171 46.428 7.158ZM39.988 8.18C37.168 14.345 34.918 20.487 33.244 26.59C32.2314 26.7115 31.2541 27.0383 30.3721 27.5503C29.49 28.0623 28.7217 28.7489 28.114 29.568C23.602 28.129 19.0321 26.8786 14.416 25.82C20.4407 16.9555 29.5617 10.6637 39.988 8.18ZM81.111 28.598C83.203 28.611 85.305 28.678 87.418 28.788C89.9436 33.2365 91.6497 38.1024 92.455 43.154C86.405 44.138 80.515 45.501 74.781 47.219C74.162 46.4525 73.398 45.8154 72.5327 45.3443C71.6674 44.8731 70.7178 44.577 69.738 44.473C68.7743 40.6357 67.6002 36.8543 66.221 33.146C67.4612 32.0996 68.3286 30.6792 68.693 29.098C72.792 28.742 76.929 28.571 81.111 28.598ZM11.732 30.36C16.834 31.483 21.812 32.796 26.645 34.339C26.6453 34.349 26.6456 34.359 26.646 34.369C20.138 37.042 13.739 40.194 7.447 43.806C8.12004 39.1174 9.56813 34.5735 11.732 30.36ZM54.826 31.044C55.4743 32.2161 56.4246 33.1931 57.5782 33.8737C58.7318 34.5543 60.0466 34.9135 61.386 34.914C61.4534 34.9132 61.5207 34.9116 61.588 34.909C62.8953 38.4098 64.009 41.9798 64.924 45.603C64.5483 45.8411 64.1946 46.1122 63.867 46.413C56.8152 41.8169 49.3705 37.8538 41.62 34.57C41.6261 34.4848 41.6308 34.3994 41.634 34.314C45.974 33.0033 50.3762 31.9119 54.826 31.044ZM28.507 38.985C29.0584 39.6121 29.7107 40.1428 30.437 40.555C29.205 50.196 29.478 59.702 31.358 69.001C26.9275 72.2409 22.659 75.6967 18.568 79.356C11.392 71.677 7 61.366 7 50C7 49.953 7.004 49.908 7.004 49.861C14.051 45.627 21.214 41.991 28.506 38.986M39.627 39.145C47.2665 42.3734 54.5972 46.2884 61.529 50.842C61.4752 51.2029 61.4478 51.5672 61.447 51.932C61.4469 51.9477 61.4469 51.9633 61.447 51.979C52.487 55.704 43.933 60.359 35.775 65.893C34.365 57.895 34.215 49.743 35.268 41.449C36.9391 41.1942 38.4752 40.3823 39.627 39.145ZM92.953 48.139C92.979 48.756 93 49.376 93 50C93.0064 56.0903 91.7169 62.1123 89.217 67.666C85.0082 63.1842 80.5088 58.9844 75.748 55.094C76.2067 54.1081 76.4455 53.0343 76.448 51.947C81.8644 50.3329 87.3769 49.061 92.953 48.139ZM63.135 56.668C64.2143 57.9929 65.7137 58.9095 67.385 59.266C68.479 69.175 68.145 79.332 66.453 89.746C61.2356 91.9007 55.6448 93.0064 50 93C48.523 93 47.063 92.926 45.625 92.781C41.613 85.717 38.716 78.511 36.896 71.174C45.224 65.351 53.959 60.499 63.135 56.668ZM72.316 58.728C77.4549 62.9154 82.2805 67.4732 86.754 72.365C83.08 78.3926 77.9812 83.4252 71.906 87.02C73.191 77.418 73.346 67.976 72.316 58.728ZM32.606 74.284C34.196 80.177 36.44 85.981 39.359 91.677C33.0384 90.0699 27.1684 87.0402 22.197 82.819C25.594 79.799 29.063 76.949 32.606 74.284Z" fill="#00005A"/>
</g>
<defs>
<clipPath id="clip0_149_21">
<rect width="100" height="100" fill="white"/>
</clipPath>
</defs>
</svg>
